<svg width="128" height="128" viewBox="0 0 128 128" fill="none" xmlns="http://www.w3.org/2000/svg">
<g clip-path="url(#clip0_2003_2)">
<path d="M53.4502 -0.844727H74.4355C74.8811 -0.844727 75.273 -0.550084 75.3965 -0.12207L86.6221 38.8311C86.9923 40.1155 88.1681 40.9999 89.5049 41H110C110.552 41 111 41.4477 111 42V54C111 54.5523 110.552 55 110 55H18C17.4477 55 17 54.5523 17 54V42C17 41.4477 17.4477 41 18 41H38.4912C39.8309 40.9999 41.0084 40.1115 41.376 38.8232L52.4883 -0.119141C52.6108 -0.548589 53.0036 -0.844727 53.4502 -0.844727Z" fill="url(#paint0_linear_2003_2)" stroke="url(#paint1_linear_2003_2)" stroke-width="2"/>
<path d="M18 75H110C110.552 75 111 75.4477 111 76V88C111 88.5523 110.552 89 110 89H89.4746C88.1594 89.0001 86.9971 89.8568 86.6084 91.1133L75.2822 127.729C75.1527 128.148 74.7646 128.434 74.3262 128.434H53.29C52.8483 128.433 52.4587 128.144 52.332 127.721L41.3848 91.1396C41.0046 89.8699 39.8362 89 38.5107 89H18C17.4477 89 17 88.5523 17 88V76C17 75.4477 17.4477 75 18 75Z" fill="url(#paint2_linear_2003_2)" stroke="url(#paint3_linear_2003_2)" stroke-width="2"/>
<g filter="url(#filter0_d_2003_2)">
<path d="M33.6055 65.8711V69H31.959V60.4688H34.877C35.3418 60.4688 35.7617 60.5371 36.1367 60.6738C36.5117 60.8066 36.832 60.9922 37.0977 61.2305C37.3594 61.4727 37.5605 61.7617 37.7012 62.0977C37.8457 62.4336 37.918 62.8066 37.918 63.2168C37.918 63.5996 37.8457 63.9531 37.7012 64.2773C37.5605 64.6016 37.3594 64.8809 37.0977 65.1152C36.832 65.3535 36.5117 65.5391 36.1367 65.6719C35.7617 65.8047 35.3418 65.8711 34.877 65.8711H33.6055ZM33.6055 64.5352H34.877C35.1113 64.5352 35.3145 64.5 35.4863 64.4297C35.6582 64.3594 35.8027 64.2637 35.9199 64.1426C36.0332 64.0215 36.1172 63.8828 36.1719 63.7266C36.2305 63.5664 36.2598 63.4004 36.2598 63.2285C36.2598 63.0293 36.2305 62.8438 36.1719 62.6719C36.1172 62.5 36.0332 62.3496 35.9199 62.2207C35.8027 62.0918 35.6582 61.9902 35.4863 61.916C35.3145 61.8418 35.1113 61.8047 34.877 61.8047H33.6055V64.5352ZM55.2559 67.2188H52.6953L52.1914 69H50.457L53.252 60.4688H54.7461L57.4883 69H55.7539L55.2559 67.2188ZM53.0996 65.8184H54.8691L53.9961 62.6777L53.0996 65.8184ZM76.1914 66.3281C76.1641 66.7578 76.0703 67.1445 75.9102 67.4883C75.7539 67.832 75.543 68.125 75.2773 68.3672C75.0117 68.6094 74.6953 68.7969 74.3281 68.9297C73.9609 69.0586 73.5547 69.123 73.1094 69.123C72.7578 69.123 72.4316 69.0781 72.1309 68.9883C71.834 68.8945 71.5664 68.7617 71.3281 68.5898C71.1094 68.4297 70.9141 68.2363 70.7422 68.0098C70.5742 67.7832 70.4316 67.5332 70.3145 67.2598C70.2012 66.9863 70.1133 66.6855 70.0508 66.3574C69.9922 66.0293 69.9629 65.6816 69.9629 65.3145V64.166C69.9629 63.8223 69.9902 63.4961 70.0449 63.1875C70.0996 62.875 70.1816 62.5859 70.291 62.3203C70.416 61.9961 70.5801 61.707 70.7832 61.4531C70.9863 61.1992 71.2168 60.9844 71.4746 60.8086C71.7051 60.6602 71.957 60.5469 72.2305 60.4688C72.5078 60.3867 72.8047 60.3457 73.1211 60.3457C73.5898 60.3457 74.0059 60.4121 74.3691 60.5449C74.7363 60.6777 75.0488 60.8672 75.3066 61.1133C75.5645 61.3594 75.7676 61.6602 75.916 62.0156C76.0645 62.3711 76.1582 62.7715 76.1973 63.2168H74.5566C74.541 62.9629 74.502 62.7402 74.4395 62.5488C74.3809 62.3574 74.2949 62.1973 74.1816 62.0684C74.0645 61.9434 73.918 61.8496 73.7422 61.7871C73.5703 61.7207 73.3633 61.6875 73.1211 61.6875C72.9922 61.6875 72.8711 61.7012 72.7578 61.7285C72.6484 61.7559 72.5469 61.7969 72.4531 61.8516C72.293 61.9453 72.1562 62.0801 72.043 62.2559C71.9336 62.4277 71.8457 62.6289 71.7793 62.8594C71.7285 63.0391 71.6914 63.2383 71.668 63.457C71.6445 63.6719 71.6328 63.9043 71.6328 64.1543V65.3145C71.6328 65.6543 71.6504 65.959 71.6855 66.2285C71.7246 66.4941 71.7832 66.7266 71.8613 66.9258C71.916 67.0625 71.9805 67.1836 72.0547 67.2891C72.1328 67.3945 72.2207 67.4824 72.3184 67.5527C72.4238 67.6309 72.541 67.6895 72.6699 67.7285C72.8027 67.7637 72.9492 67.7812 73.1094 67.7812C73.3242 67.7812 73.5176 67.7539 73.6895 67.6992C73.8613 67.6445 74.0078 67.5586 74.1289 67.4414C74.25 67.3242 74.3457 67.1738 74.416 66.9902C74.4863 66.8066 74.5293 66.5859 74.5449 66.3281H76.1914ZM92.0176 65.4961L91.1152 66.4863V69H89.4629V60.4688H91.1152V64.377L91.8887 63.334L93.9629 60.4688H95.9785L93.1074 64.2422L96.084 69H94.127L92.0176 65.4961Z" fill="url(#paint4_linear_2003_2)"/>
</g>
</g>
<defs>
<filter id="filter0_d_2003_2" x="27.959" y="58.3457" width="72.125" height="16.7773" filterUnits="userSpaceOnUse" color-interpolation-filters="sRGB">
<feFlood flood-opacity="0" result="BackgroundImageFix"/>
<feColorMatrix in="SourceAlpha" type="matrix" values="0 0 0 0 0 0 0 0 0 0 0 0 0 0 0 0 0 0 127 0" result="hardAlpha"/>
<feOffset dy="2"/>
<feGaussianBlur stdDeviation="2"/>
<feComposite in2="hardAlpha" operator="out"/>
<feColorMatrix type="matrix" values="0 0 0 0 0 0 0 0 0 0 0 0 0 0 0 0 0 0 0.25 0"/>
<feBlend mode="normal" in2="BackgroundImageFix" result="effect1_dropShadow_2003_2"/>
<feBlend mode="normal" in="SourceGraphic" in2="effect1_dropShadow_2003_2" result="shape"/>
</filter>
<linearGradient id="paint0_linear_2003_2" x1="64" y1="40" x2="64" y2="56" gradientUnits="userSpaceOnUse">
<stop stop-color="#D1D8DF"/>
<stop offset="1" stop-color="#8B959F"/>
</linearGradient>
<linearGradient id="paint1_linear_2003_2" x1="64" y1="-1.84473" x2="64" y2="56" gradientUnits="userSpaceOnUse">
<stop offset="0.75" stop-color="#D1D8DF"/>
<stop offset="1" stop-color="#CF1020"/>
</linearGradient>
<linearGradient id="paint2_linear_2003_2" x1="64" y1="74" x2="64" y2="90" gradientUnits="userSpaceOnUse">
<stop stop-color="#D1D8DF"/>
<stop offset="1" stop-color="#8B959F"/>
</linearGradient>
<linearGradient id="paint3_linear_2003_2" x1="64" y1="74" x2="64" y2="129.434" gradientUnits="userSpaceOnUse">
<stop stop-color="#CF1020"/>
<stop offset="0.153846" stop-color="#8B959F"/>
</linearGradient>
<linearGradient id="paint4_linear_2003_2" x1="64" y1="56" x2="64" y2="72" gradientUnits="userSpaceOnUse">
<stop stop-color="#F45361"/>
<stop offset="0.591346" stop-color="#CF1020"/>
</linearGradient>
<clipPath id="clip0_2003_2">
<rect width="128" height="128" fill="white"/>
</clipPath>
</defs>
</svg>
